<svg width="48" height="48" viewBox="0 0 48 48" fill="none" xmlns="http://www.w3.org/2000/svg">
<path d="M43.092 15.8791C42.5294 15.3167 41.7665 15.0007 40.971 15.0007C40.1755 15.0007 39.4126 15.3167 38.85 15.8791L24 30.7291L9.14998 15.8791C8.58417 15.3326 7.82636 15.0302 7.03977 15.0371C6.25318 15.0439 5.50074 15.3594 4.94452 15.9156C4.38829 16.4719 4.07279 17.2243 4.06596 18.0109C4.05912 18.7975 4.3615 19.5553 4.90798 20.1211L21.879 37.0921C22.4416 37.6545 23.2045 37.9705 24 37.9705C24.7955 37.9705 25.5584 37.6545 26.121 37.0921L43.092 20.1211C43.6544 19.5585 43.9703 18.7956 43.9703 18.0001C43.9703 17.2046 43.6544 16.4417 43.092 15.8791Z" fill="black"/>
</svg>
