<svg width="36" height="36" viewBox="0 0 36 36" fill="none" xmlns="http://www.w3.org/2000/svg">
<path d="M11.9093 3.68099C11.4875 4.10292 11.2505 4.67512 11.2505 5.27174C11.2505 5.86836 11.4875 6.44055 11.9093 6.86249L23.0468 18L11.9093 29.1375C11.4994 29.5618 11.2726 30.1302 11.2777 30.7201C11.2829 31.3101 11.5195 31.8744 11.9367 32.2916C12.3538 32.7087 12.9182 32.9454 13.5081 32.9505C14.0981 32.9556 14.6664 32.7288 15.0908 32.319L27.819 19.5907C28.2408 19.1688 28.4778 18.5966 28.4778 18C28.4778 17.4034 28.2408 16.8312 27.819 16.4092L15.0908 3.68099C14.6688 3.25918 14.0966 3.02222 13.5 3.02222C12.9034 3.02222 12.3312 3.25918 11.9093 3.68099Z" fill="white"/>
</svg>
