<svg width="49" height="12" viewBox="0 0 49 12" fill="none" xmlns="http://www.w3.org/2000/svg">
<path d="M26.4346 0.369667C25.8157 0.130659 25.0395 0 24.2385 0C23.4375 0 22.6613 0.130659 22.0425 0.369667L1.29247 8.21842C0.937208 8.35252 0.64185 8.51829 0.423374 8.70619C0.204898 8.8941 0.0676116 9.10045 0.0194052 9.31337C-0.0288012 9.52629 0.0130233 9.74159 0.142475 9.94689C0.271926 10.1522 0.486451 10.3434 0.773721 10.5097C1.05911 10.6766 1.4119 10.8154 1.81181 10.918C2.21172 11.0207 2.65087 11.0852 3.10401 11.1079C3.55715 11.1305 4.01535 11.1109 4.45227 11.05C4.88919 10.9892 5.29623 10.8884 5.64997 10.7534L24.2212 3.71717L42.7925 10.9972C43.4055 11.2359 44.1751 11.3679 44.9712 11.3709C45.4793 11.3713 45.9813 11.3191 46.4415 11.218C46.9018 11.1169 47.309 10.9694 47.6341 10.7859C47.9253 10.6217 48.1447 10.4321 48.2798 10.228C48.4148 10.0239 48.4628 9.8093 48.421 9.59646C48.3793 9.38363 48.2486 9.17675 48.0364 8.98769C47.8242 8.79863 47.5347 8.63108 47.1846 8.49467L26.4346 0.369667Z" fill="white"/>
</svg>
